<svg width="28" height="32" viewBox="0 0 28 32" fill="none" xmlns="http://www.w3.org/2000/svg">
<g clip-path="url(#clip0_1_46)">
<path d="M14.9241 0.265573C15.5823 0.364922 16.2534 0.411943 16.8972 0.56893C22.5928 1.97499 26.1122 5.54322 27.4743 11.2236C27.5688 11.6572 27.6349 12.0964 27.6721 12.5386C27.7178 12.9694 27.7277 13.4032 27.7573 13.909C27.6257 13.8126 27.4876 13.7252 27.3441 13.6474C26.9393 13.4669 26.5345 13.2834 26.1183 13.1362C25.9394 13.0733 25.8633 13.0081 25.8451 12.8132C25.6657 10.7531 24.9363 8.77842 23.7327 7.09413C22.3778 5.16179 20.4678 3.68336 18.254 2.8532C16.5467 2.197 14.7074 1.95473 12.8878 2.14638C10.5855 2.36567 8.40189 3.26721 6.61842 4.73477C4.70378 6.27126 3.32463 8.37089 2.67752 10.7344C2.48424 11.417 2.41804 12.1397 2.28335 12.842C2.26585 12.9337 2.20726 13.0596 2.13116 13.0915C1.56198 13.3364 0.984428 13.5617 0.357414 13.8142C0.433508 13.0892 0.457094 12.324 0.601673 11.5815C1.52774 6.81428 4.22299 3.41366 8.64633 1.38875C10.0049 0.776912 11.4626 0.41318 12.9502 0.314868C13.0397 0.302879 13.1283 0.28566 13.2158 0.263298L14.9241 0.265573Z" fill="#60340B"/>
<path d="M16.64 27.6231C17.6825 27.6231 18.7166 27.6618 19.7462 27.6125C20.8716 27.5586 21.8463 26.7433 22.0906 25.7923C21.634 25.7711 21.1501 25.8219 20.7049 25.7165C19.4509 25.4131 18.6504 24.3938 18.6375 23.0985C18.6154 20.636 18.6025 18.1735 18.6375 15.7118C18.6702 13.5375 20.9203 12.299 22.7884 13.4017C23.6574 13.9144 24.082 14.7266 24.0896 15.7216C24.1033 18.831 24.12 21.9404 24.0835 25.0499C24.0554 27.4449 22.0731 29.3901 19.6701 29.4485C18.7387 29.4713 17.8073 29.4591 16.8759 29.4485C16.6971 29.4485 16.6141 29.5062 16.5388 29.6662C15.9856 30.8553 14.7445 31.4749 13.4859 31.2027C12.2722 30.9403 11.3857 29.8626 11.3416 28.5968C11.299 27.3554 12.1839 26.2178 13.4425 25.897C14.6319 25.5936 15.9536 26.2117 16.5 27.325C16.5487 27.4259 16.5936 27.5245 16.64 27.6231Z" fill="#60340B"/>
<path d="M9.51608 19.4309C9.51608 20.6216 9.52217 21.8123 9.51608 23.0022C9.50847 24.2399 8.78101 25.2956 7.71113 25.6452C5.87346 26.2443 4.09058 25.0339 4.05862 23.1069C4.02006 20.636 4.02006 18.1644 4.05862 15.6921C4.09666 13.5322 6.33307 12.3051 8.19661 13.3949C9.1006 13.9258 9.50542 14.7676 9.51303 15.799C9.52293 17.0101 9.51608 18.2205 9.51608 19.4309Z" fill="#60340B"/>
<path d="M2.25823 14.9883V23.8281C1.53686 23.5854 0.990507 23.1288 0.692219 22.4387C0.526253 22.051 0.43364 21.636 0.419044 21.2147C0.384041 20.0058 0.40002 18.7946 0.40839 17.585C0.413716 16.3534 1.17009 15.2916 2.25823 14.9883Z" fill="#60340B"/>
<path d="M25.8923 23.8129V14.9731C26.4478 15.1508 26.9274 15.5092 27.2543 15.9909C27.5779 16.4474 27.7486 16.9942 27.7421 17.5532C27.7421 18.7833 27.752 20.0134 27.7421 21.2435C27.7292 22.4592 26.972 23.5005 25.8923 23.8129Z" fill="#60340B"/>
</g>
<defs>
<clipPath id="clip0_1_46">
<rect width="27.3953" height="31" fill="white" transform="translate(0.364258 0.265625)"/>
</clipPath>
</defs>
</svg>
