<svg width="40" height="30" viewBox="0 0 40 30" fill="none" xmlns="http://www.w3.org/2000/svg">
<path d="M15.8281 6.77813C14.9625 6.92813 14.5687 7.05938 13.9062 7.41563C13.2906 7.74844 12.4812 8.45625 11.8437 9.21563C11.2937 9.87188 10.4344 11.2313 9.43749 13.0078C8.20311 15.2109 7.52499 16.2047 6.77186 16.9031C6.07811 17.55 5.38749 17.9391 4.53124 18.1734C4.09061 18.2906 3.21561 18.2813 2.79374 18.15C1.98749 17.9063 1.49061 17.4938 1.29374 16.9125C1.05624 16.2094 1.07499 15.3328 1.34061 14.7516C1.53124 14.3344 1.92186 13.9688 2.17499 13.9688C2.44061 13.9688 2.64061 14.3391 2.73749 15.0094C2.76874 15.2109 2.80624 15.375 2.82186 15.375C2.87811 15.375 2.82186 14.3953 2.74686 14.0391C2.50624 12.8766 1.94686 12.6328 1.03749 13.2937C0.546863 13.65 0.246863 14.2172 0.0874877 15.0797C-1.23419e-05 15.5531 -0.00626234 16.6641 0.0749877 17.1938C0.424988 19.5422 1.59686 21.3422 3.44061 22.3734C5.36874 23.4563 7.79999 23.5219 11.1875 22.5891C12.0687 22.3453 12.6344 22.1391 13.3594 21.7922C15.4094 20.8078 17.3937 19.2609 18.8062 17.5453C19.1656 17.1094 19.6906 16.3219 19.8594 15.9703C19.9281 15.825 19.9937 15.7078 20.0031 15.7031C20.0125 15.7031 20.0719 15.8156 20.1375 15.9563C20.2875 16.2844 20.9094 17.2031 21.2812 17.6484C22.9281 19.6172 25.5219 21.4688 27.7344 22.2609C28.5781 22.5609 30.0687 22.9313 31.0312 23.0813C32.9281 23.3766 34.5906 23.25 35.8812 22.7063C38.0969 21.7781 39.5312 19.8188 39.925 17.1938C40.0062 16.6641 40 15.5531 39.9125 15.0797C39.7531 14.2172 39.4531 13.65 38.9625 13.2937C38.5812 13.0172 38.3281 12.9187 38.0469 12.9469C37.8 12.9703 37.6844 13.0453 37.5344 13.275C37.3156 13.6078 37.1937 14.1375 37.1656 14.8688C37.1437 15.4734 37.1844 15.5344 37.2625 15.0094C37.3937 14.0953 37.6875 13.7859 38.125 14.0906C38.8437 14.5922 39.0875 15.8391 38.6844 16.9734C38.4062 17.7563 37.4906 18.2484 36.3125 18.2531C35.2094 18.2531 34.2031 17.8125 33.2219 16.8984C32.5312 16.2563 31.7594 15.1359 30.6562 13.1719C28.9812 10.1906 28.1937 9.07031 27.1219 8.14688C25.4844 6.73125 23.4531 6.36094 21.9219 7.20469C21.3062 7.54688 20.7844 8.0625 20.3125 8.79844L20 9.28125L19.6875 8.79844C18.8062 7.425 17.6375 6.73125 16.25 6.75938C16.0687 6.75938 15.8812 6.77344 15.8281 6.77813Z" fill="#60340B"/>
</svg>
