<svg width="45" height="45" viewBox="0 0 45 45" fill="none" xmlns="http://www.w3.org/2000/svg">
<path d="M22.2 3.075C21.15 4.575 21 7.425 21 22.35V39.825L22.875 41.625C26.55 45.375 33 42.75 33 37.5C33 34.8 30.15 31.5 27.75 31.5C26.1 31.5 25.95 30.975 26.925 28.275C27.675 26.325 25.05 3.14999 24 2.02499C23.7 1.64999 22.875 2.175 22.2 3.075ZM25.2 21.825C25.95 23.1 24.225 24.525 23.175 23.475C22.275 22.575 22.875 21 24 21C24.375 21 24.9 21.375 25.2 21.825ZM29.25 35.625C30.375 36.975 30 39 28.35 40.05C25.725 41.7 22.8 38.025 24.75 35.625C25.95 34.2 28.05 34.2 29.25 35.625Z" fill="#60340B"/>
<path d="M36.375 14.475C32.7 15.675 29.55 16.725 29.475 16.8C29.4 16.875 29.55 18.3 29.775 20.025L30.15 23.175L36.15 20.175C40.35 18.075 42.3 16.65 42.825 15.225C43.2 14.175 43.425 13.05 43.35 12.75C43.2 12.45 40.125 13.2 36.375 14.475Z" fill="#60340B"/>
<path d="M6.29999 21.9C4.42499 22.8 2.99999 25.5 2.99999 28.125C2.99999 29.1 2.62499 30.15 2.17499 30.375C0.449992 31.5 2.17499 32.475 6.29999 32.7C9.74999 32.925 11.4 32.55 14.325 31.125C17.925 29.25 18 29.175 18 25.725V22.275L16.425 23.7C15 24.975 14.775 24.975 14.025 23.925C12.975 22.5 10.2 21 8.84999 21.075C8.32499 21.075 7.12499 21.45 6.29999 21.9ZM11.55 25.65C13.2 28.275 9.52499 31.2 7.12499 29.25C5.62499 27.975 5.69999 25.725 7.34999 24.825C9.07499 23.775 10.5 24.075 11.55 25.65Z" fill="#60340B"/>
</svg>
