<svg width="40" height="30" viewBox="0 0 40 30" fill="none" xmlns="http://www.w3.org/2000/svg">
<path d="M15.8282 6.77813C14.9626 6.92813 14.5688 7.05938 13.9063 7.41563C13.2907 7.74844 12.4813 8.45625 11.8438 9.21563C11.2938 9.87188 10.4344 11.2313 9.43755 13.0078C8.20318 15.2109 7.52505 16.2047 6.77192 16.9031C6.07817 17.55 5.38755 17.9391 4.5313 18.1734C4.09067 18.2906 3.21567 18.2813 2.7938 18.15C1.98755 17.9063 1.49067 17.4938 1.2938 16.9125C1.0563 16.2094 1.07505 15.3328 1.34067 14.7516C1.5313 14.3344 1.92192 13.9688 2.17505 13.9688C2.44067 13.9688 2.64067 14.3391 2.73755 15.0094C2.7688 15.2109 2.8063 15.375 2.82192 15.375C2.87817 15.375 2.82192 14.3953 2.74692 14.0391C2.5063 12.8766 1.94692 12.6328 1.03755 13.2938C0.546924 13.65 0.246924 14.2172 0.0875487 15.0797C4.86941e-05 15.5531 -0.00620131 16.6641 0.0750487 17.1938C0.425049 19.5422 1.59692 21.3422 3.44067 22.3734C5.3688 23.4563 7.80005 23.5219 11.1876 22.5891C12.0688 22.3453 12.6344 22.1391 13.3594 21.7922C15.4094 20.8078 17.3938 19.2609 18.8063 17.5453C19.1657 17.1094 19.6907 16.3219 19.8594 15.9703C19.9282 15.825 19.9938 15.7078 20.0032 15.7031C20.0126 15.7031 20.0719 15.8156 20.1376 15.9563C20.2876 16.2844 20.9094 17.2031 21.2813 17.6484C22.9282 19.6172 25.5219 21.4688 27.7344 22.2609C28.5782 22.5609 30.0688 22.9313 31.0313 23.0813C32.9282 23.3766 34.5907 23.25 35.8813 22.7063C38.0969 21.7781 39.5313 19.8188 39.9251 17.1938C40.0063 16.6641 40.0001 15.5531 39.9126 15.0797C39.7532 14.2172 39.4532 13.65 38.9626 13.2938C38.5813 13.0172 38.3282 12.9188 38.0469 12.9469C37.8001 12.9703 37.6844 13.0453 37.5344 13.275C37.3157 13.6078 37.1938 14.1375 37.1657 14.8688C37.1438 15.4734 37.1844 15.5344 37.2626 15.0094C37.3938 14.0953 37.6876 13.7859 38.1251 14.0906C38.8438 14.5922 39.0876 15.8391 38.6844 16.9734C38.4063 17.7563 37.4907 18.2484 36.3126 18.2531C35.2094 18.2531 34.2032 17.8125 33.2219 16.8984C32.5313 16.2563 31.7594 15.1359 30.6563 13.1719C28.9813 10.1906 28.1938 9.07031 27.1219 8.14688C25.4844 6.73125 23.4532 6.36094 21.9219 7.20469C21.3063 7.54688 20.7844 8.0625 20.3126 8.79844L20.0001 9.28125L19.6876 8.79844C18.8063 7.425 17.6376 6.73125 16.2501 6.75938C16.0688 6.75938 15.8813 6.77344 15.8282 6.77813Z" fill="white"/>
</svg>
